<?xml version="1.0" encoding="UTF-8" standalone="no"?>
<svg width="455px" height="751px" viewBox="0 0 455 751" version="1.1" xmlns="http://www.w3.org/2000/svg" xmlns:xlink="http://www.w3.org/1999/xlink" xmlns:sketch="http://www.bohemiancoding.com/sketch/ns">
    <!-- Generator: Sketch 3.3.3 (12072) - http://www.bohemiancoding.com/sketch -->
    <title>dreambutter-jar</title>
    <desc>Created with Sketch.</desc>
    <defs>
        <radialGradient cx="50%" cy="0%" fx="50%" fy="0%" r="100%" id="radialGradient-1">
            <stop stop-color="#FFFFFF" offset="0%"></stop>
            <stop stop-color="#DDDDDD" offset="100%"></stop>
        </radialGradient>
        <linearGradient x1="50%" y1="0%" x2="50%" y2="100%" id="linearGradient-2">
            <stop stop-color="#8B572A" offset="0%"></stop>
            <stop stop-color="#DE8D44" offset="100%"></stop>
        </linearGradient>
        <linearGradient x1="50%" y1="0%" x2="50%" y2="198.448867%" id="linearGradient-3">
            <stop stop-color="#8B572A" offset="0%"></stop>
            <stop stop-color="#DE8D44" offset="100%"></stop>
        </linearGradient>
        <radialGradient cx="50%" cy="0%" fx="50%" fy="0%" r="166.453474%" id="radialGradient-4">
            <stop stop-color="#8B572A" offset="0%"></stop>
            <stop stop-color="#DE8D44" offset="100%"></stop>
        </radialGradient>
        <linearGradient x1="50%" y1="28.4418846%" x2="50%" y2="100%" id="linearGradient-5">
            <stop stop-color="#8B572A" offset="0%"></stop>
            <stop stop-color="#D78841" offset="100%"></stop>
        </linearGradient>
    </defs>
    <g id="Welcome" stroke="none" stroke-width="1" fill="none" fill-rule="evenodd" sketch:type="MSPage">
        <g id="Desktop-HD" sketch:type="MSArtboardGroup" transform="translate(-519.000000, -238.000000)">
            <g id="dreambutter-jar" sketch:type="MSLayerGroup" transform="translate(519.000000, 238.000000)">
                <rect id="jar" fill="#EEA564" sketch:type="MSShapeGroup" x="0" y="99.3649217" width="455" height="651.635078" rx="40"></rect>
                <g id="lid" sketch:type="MSShapeGroup">
                    <rect id="Rectangle-1-Copy" fill="#B37CE3" transform="translate(227.500000, 49.682461) scale(1, -1) translate(-227.500000, -49.682461) " x="0" y="0" width="455" height="99.3649217" rx="11"></rect>
                    <rect id="Rectangle-3" stroke="#979797" fill="#D488EE" x="48" y="0" width="12" height="99.3649217"></rect>
                    <rect id="Rectangle-3-Copy-20" stroke="#979797" fill="#D488EE" x="30" y="0" width="12" height="99.3649217"></rect>
                    <rect id="Rectangle-3-Copy" stroke="#979797" fill="#D488EE" x="66" y="0" width="12" height="99.3649217"></rect>
                    <rect id="Rectangle-3-Copy-3" stroke="#979797" fill="#D488EE" x="84" y="0" width="12" height="99.3649217"></rect>
                    <rect id="Rectangle-3-Copy-2" stroke="#979797" fill="#D488EE" x="102" y="0" width="12" height="99.3649217"></rect>
                    <rect id="Rectangle-3-Copy-7" stroke="#979797" fill="#D488EE" x="120" y="0" width="12" height="99.3649217"></rect>
                    <rect id="Rectangle-3-Copy-4" stroke="#979797" fill="#D488EE" x="138" y="0" width="12" height="99.3649217"></rect>
                    <rect id="Rectangle-3-Copy-5" stroke="#979797" fill="#D488EE" x="156" y="0" width="12" height="99.3649217"></rect>
                    <rect id="Rectangle-3-Copy-6" stroke="#979797" fill="#D488EE" x="174" y="0" width="12" height="99.3649217"></rect>
                    <rect id="Rectangle-3-Copy-15" stroke="#979797" fill="#D488EE" x="191" y="0" width="12" height="99.3649217"></rect>
                    <rect id="Rectangle-3-Copy-8" stroke="#979797" fill="#D488EE" x="209" y="0" width="12" height="99.3649217"></rect>
                    <rect id="Rectangle-3-Copy-9" stroke="#979797" fill="#D488EE" x="227" y="0" width="12" height="99.3649217"></rect>
                    <rect id="Rectangle-3-Copy-10" stroke="#979797" fill="#D488EE" x="245" y="0" width="12" height="99.3649217"></rect>
                    <rect id="Rectangle-3-Copy-11" stroke="#979797" fill="#D488EE" x="263" y="0" width="12" height="99.3649217"></rect>
                    <rect id="Rectangle-3-Copy-12" stroke="#979797" fill="#D488EE" x="281" y="0" width="12" height="99.3649217"></rect>
                    <rect id="Rectangle-3-Copy-13" stroke="#979797" fill="#D488EE" x="299" y="0" width="12" height="99.3649217"></rect>
                    <rect id="Rectangle-3-Copy-14" stroke="#979797" fill="#D488EE" x="317" y="0" width="12" height="99.3649217"></rect>
                    <rect id="Rectangle-3-Copy-19" stroke="#979797" fill="#D488EE" x="337" y="0" width="12" height="99.3649217"></rect>
                    <rect id="Rectangle-3-Copy-16" stroke="#979797" fill="#D488EE" x="355" y="0" width="12" height="99.3649217"></rect>
                    <rect id="Rectangle-3-Copy-17" stroke="#979797" fill="#D488EE" x="373" y="0" width="12" height="99.3649217"></rect>
                    <rect id="Rectangle-3-Copy-18" stroke="#979797" fill="#D488EE" x="391" y="0" width="12" height="99.3649217"></rect>
                    <rect id="Rectangle-3-Copy-21" stroke="#979797" fill="#D488EE" x="409" y="0" width="12" height="99.3649217"></rect>
                </g>
                <g id="label" transform="translate(0.000000, 187.902296)" fill="#FFE6BA" sketch:type="MSShapeGroup">
                    <rect id="Rectangle-25" x="0" y="0" width="455" height="473.37983"></rect>
                </g>
                <g id="cloud" transform="translate(40.000000, 399.555556)" fill="url(#radialGradient-1)" sketch:type="MSShapeGroup">
                    <rect id="Rectangle-26" x="77.112529" y="168.888889" width="235.873618" height="67.5555556"></rect>
                    <ellipse id="Oval-1" cx="76.6589258" cy="161.333333" rx="76.6589258" ry="75.1111111"></ellipse>
                    <ellipse id="Oval-1-Copy" cx="168.740357" cy="118.222222" rx="120.658428" ry="118.222222"></ellipse>
                    <ellipse id="Oval-1-Copy-2" cx="312.986147" cy="177.777778" rx="59.8756107" ry="58.6666667"></ellipse>
                    <ellipse id="Oval-1-Copy-3" cx="265.35782" cy="133.777778" rx="70.3084823" ry="68.8888889"></ellipse>
                </g>
                <g id="monkey" transform="translate(95.339580, 399.555556)" sketch:type="MSShapeGroup">
                    <ellipse id="Oval-5-Copy-5" fill="#8B572A" cx="112.493572" cy="19.5555556" rx="19.9585369" ry="19.5555556"></ellipse>
                    <path d="M200.939556,98.4629624 C200.939556,98.4629624 225.939857,102.255354 227.666634,187.097149 C229.39341,271.938944 269.864729,190.30828 253.838922,181.076026 C237.813115,171.843772 235.186899,187.171264 241.832671,195.318641" id="Path-4" stroke="url(#linearGradient-2)" stroke-width="9" transform="translate(229.262350, 161.879775) rotate(-13.000000) translate(-229.262350, -161.879775) "></path>
                    <ellipse id="Oval-5-Copy-4" fill="#8B572A" cx="19.9585369" cy="111.111111" rx="19.9585369" ry="19.5555556"></ellipse>
                    <path d="M98.9403168,138.61349 C108.930171,151.059385 170.387926,160.444444 177.358817,160.444444 C194.519305,160.444444 208.43063,146.814002 208.43063,130 C208.43063,113.185998 194.519305,99.5555556 177.358817,99.5555556 C160.198328,99.5555556 121.76217,69.0564471 121.76217,85.8704495 C121.76217,95.8543103 84.3377912,120.420882 98.9403168,138.61349 Z" id="Oval-5-Copy-11" fill="url(#linearGradient-3)"></path>
                    <ellipse id="Oval-5-Copy-7" fill="#DF8D44" cx="112.599527" cy="19.8799304" rx="10.8864747" ry="10.6666667"></ellipse>
                    <ellipse id="Oval-5" fill="url(#radialGradient-4)" cx="82.5557663" cy="84.4444444" rx="57.153992" ry="56"></ellipse>
                    <path d="M171.0724,192.801985 C181.062254,205.24788 170.387926,164.693927 177.358817,164.693927 C194.519305,164.693927 208.43063,151.063485 208.43063,134.249483 C208.43063,117.435481 194.519305,103.805039 177.358817,103.805039 C160.198328,103.805039 151.785043,130.698629 151.785043,147.512631 C151.785043,157.496492 156.469874,174.609378 171.0724,192.801985 Z" id="Oval-5-Copy-13" fill="url(#linearGradient-5)"></path>
                    <path d="M86.9504636,164.693927 C104.110952,164.693927 148.331805,154.263164 148.331805,137.449161 C148.331805,120.635159 150.896158,118.765617 133.73567,118.765617 C125.102355,118.765617 117.157239,141.73705 98.6026115,147.447136 C80.2760988,153.087021 59.4235737,139.092132 59.4235737,147.447135 C59.4235737,157.430996 79.9795733,164.693927 86.9504636,164.693927 Z" id="Oval-5-Copy-12" fill="url(#linearGradient-5)"></path>
                    <path d="M59.9865615,107.631479 C59.9865615,107.631479 50.1177234,82.5400538 76.3140425,90.7660244" id="Path-1-Copy-2" stroke="#8B572A" stroke-width="6"></path>
                    <ellipse id="Oval-5-Copy" fill="#DF8D44" cx="71.6692916" cy="97.7777778" rx="25.4017742" ry="24.8888889"></ellipse>
                    <ellipse id="Oval-5-Copy-6" fill="#DF8D44" cx="18.1441245" cy="112" rx="10.8864747" ry="10.6666667"></ellipse>
                    <ellipse id="Oval-5-Copy-2" fill="#DF8D44" cx="94.3494472" cy="80" rx="25.4017742" ry="24.8888889"></ellipse>
                    <ellipse id="Oval-5-Copy-3" fill="#DF8D44" cx="94.3494472" cy="104.888889" rx="25.4017742" ry="24.8888889"></ellipse>
                    <path d="M61.1660633,107.809426 C61.1660633,107.809426 49.1789128,81.5140283 75.3752319,90.9887568" id="Path-1" stroke="#8B572A" stroke-width="4"></path>
                    <path d="M88.7303959,85.9503906 C88.7303959,85.9503906 78.2411163,61.9871584 104.437435,71.4618868" id="Path-1-Copy" stroke="#8B572A" stroke-width="4"></path>
                    <path d="M93.2619545,122.926667 C95.3801145,128.40136 98.3564245,127.019535 100.972134,122.586216 C103.587844,118.152897 104.852438,112.346892 102.734278,106.872199 C100.616118,101.397507 100.613826,110.466114 97.9981161,114.899433 C95.3824062,119.332752 91.1437944,117.451974 93.2619545,122.926667 L93.2619545,122.926667 Z" id="Oval-5-Copy-8" fill="#8B572A"></path>
                    <path d="M86.3868808,106.074898 C85.2895621,104.877101 86.5359049,103.615263 84.8461824,104.393122 C83.1564599,105.17098 82.2300489,106.285538 83.3273675,107.483335 C84.4246861,108.681132 86.4422024,108.757589 88.1319249,107.979731 C89.8216474,107.201872 87.4841994,107.272695 86.3868808,106.074898 L86.3868808,106.074898 Z" id="Oval-5-Copy-9" fill="#8B572A"></path>
                    <path d="M92.5053536,102.480909 C91.408035,101.283112 92.6543778,100.021275 90.9646553,100.799133 C89.2749328,101.576992 88.3485217,102.691549 89.4458404,103.889346 C90.543159,105.087143 92.5606753,105.1636 94.2503978,104.385742 C95.9401203,103.607883 93.6026722,103.678706 92.5053536,102.480909 L92.5053536,102.480909 Z" id="Oval-5-Copy-10" fill="#8B572A"></path>
                </g>
                <g id="z-+-z-copy-+-z-copy-2" transform="translate(227.430879, 337.102296)" font-weight="bold" font-family="Hannotate SC" fill="#A670D6" sketch:type="MSTextLayer">
                    <text id="z" transform="translate(25.443237, 114.617479) rotate(4.000000) translate(-25.443237, -114.617479) " font-size="80.4286342">
                        <tspan x="4.44323734" y="143.617479">z</tspan>
                    </text>
                    <text id="z-copy" transform="translate(80.746786, 98.490338) rotate(4.000000) translate(-80.746786, -98.490338) " font-size="98.1501976">
                        <tspan x="55.2467858" y="133.990338">z</tspan>
                    </text>
                    <text id="z-copy-2" transform="translate(143.715190, 82.544796) rotate(4.000000) translate(-143.715190, -82.544796) " font-size="115.190162">
                        <tspan x="114.21519" y="124.044796">z</tspan>
                    </text>
                </g>
                <path d="M120.674,232.392 C120.674,228.648 120.098,225.192 118.946,222.024 C117.794,218.856 116.162,216.072 114.05,213.768 C111.938,211.56 109.346,209.832 106.466,208.488 C103.49,207.24 100.226,206.568 96.7700001,206.568 C93.6980001,206.568 90.5300001,207.144 87.3620001,208.104 C84.0980001,209.16 81.2180001,210.504 78.5300001,212.232 C78.4340001,212.04 78.4340001,211.752 78.4340001,211.56 C78.4340001,211.368 78.3380001,211.272 78.2420001,211.08 C78.0500001,210.696 77.6660001,210.312 77.2820001,209.928 C76.8020001,209.64 76.3220001,209.352 75.7460001,209.16 C75.1700001,208.968 74.5940001,208.776 74.0180001,208.584 C73.3460001,208.488 72.8660001,208.392 72.4820001,208.392 C72.0980001,208.392 71.6180001,208.584 71.1380001,208.968 C70.5620001,209.352 69.9860001,209.736 69.5060001,210.12 C68.9300001,210.696 68.5460001,211.176 68.2580001,211.656 C67.8740001,212.232 67.6820001,212.616 67.6820001,212.904 C67.6820001,213.576 67.8740001,214.152 68.0660001,214.536 C68.1620001,215.112 68.3540001,215.592 68.5460001,215.976 C69.0260001,216.936 69.4100001,217.896 69.6020001,218.664 L69.8900001,220.968 L69.6980001,221.352 C69.5060001,221.64 69.4100001,221.928 69.3140001,222.216 C69.1220001,222.504 69.1220001,222.792 69.1220001,223.08 C69.1220001,223.656 69.2180001,224.136 69.5060001,224.712 C69.6980001,225.288 70.0820001,225.768 70.4660001,226.152 C70.6580001,229.224 70.8500001,232.488 70.9460001,235.752 C70.9460001,239.112 71.0420001,242.76 71.0420001,246.792 L71.0420001,252.168 C71.0420001,253.896 70.9460001,255.528 70.9460001,257.16 C70.8500001,259.56 70.7540001,261.864 70.6580001,263.976 C70.4660001,266.184 70.4660001,267.72 70.4660001,268.68 C70.4660001,269.256 70.5620001,269.736 70.9460001,270.12 C71.3300001,270.6 71.7140001,270.984 72.2900001,271.272 C72.7700001,271.656 73.2500001,271.944 73.8260001,272.136 C74.4020001,272.328 74.8820001,272.424 75.2660001,272.424 C75.6500001,272.424 76.0340001,272.424 76.5140001,272.232 C76.9940001,272.136 77.4740001,271.944 78.0500001,271.752 C78.4340001,271.56 78.8180001,271.176 79.2020001,270.792 C79.5860001,270.504 79.7780001,270.12 79.9700001,269.64 C81.9860001,270.696 84.1940001,271.464 86.4980001,272.04 C88.7060001,272.616 90.5300001,272.904 91.8740001,272.904 C96.1940001,272.904 100.13,272.136 103.778,270.6 C107.234,269.064 110.306,266.664 112.802,263.304 C115.298,260.04 117.218,255.912 118.562,250.728 C119.906,245.64 120.674,239.496 120.674,232.392 L120.674,232.392 Z M110.594,234.024 C110.594,239.688 110.018,244.488 109.058,248.52 C108.002,252.552 106.658,255.816 104.93,258.312 C103.202,260.904 101.282,262.824 99.0740001,263.976 C96.7700001,265.224 94.4660001,265.8 92.0660001,265.8 C90.5300001,265.8 89.2820001,265.608 88.1300001,265.128 C86.9780001,264.744 85.9220001,264.264 84.9620001,263.688 C84.3860001,263.4 84.0020001,263.112 83.6180001,262.824 C83.2340001,262.632 82.7540001,262.344 82.3700001,262.056 C81.6020001,261.672 80.9300001,261.384 80.4500001,261.192 C80.4500001,259.848 80.5460001,258.504 80.5460001,257.16 L80.5460001,253.032 L80.5460001,248.328 C80.5460001,246.792 80.4500001,245.16 80.4500001,243.624 C80.4500001,242.664 80.3540001,241.32 80.3540001,239.688 L80.3540001,234.696 L80.3540001,229.224 C80.2580001,227.304 80.1620001,225.48 80.1620001,223.56 C80.3540001,223.464 80.5460001,223.272 80.7380001,222.984 C80.8340001,222.792 81.0260001,222.6 81.2180001,222.408 C81.6020001,221.832 81.9860001,221.448 82.2740001,221.256 C82.8500001,220.68 83.4260001,220.2 84.0020001,219.624 C84.4820001,219.144 84.9620001,218.664 85.5380001,218.184 C86.0180001,217.8 86.4980001,217.512 86.8820001,217.128 C87.2660001,216.84 87.7460001,216.552 88.3220001,216.168 C89.2820001,215.688 90.3380001,215.304 91.4900001,214.92 C92.6420001,214.728 94.1780001,214.536 96.0020001,214.536 C98.1140001,214.536 100.034,215.112 101.858,216.072 C103.586,217.224 105.122,218.664 106.466,220.392 C107.714,222.216 108.77,224.328 109.538,226.632 C110.21,229.032 110.594,231.528 110.594,234.024 L110.594,234.024 Z M188.502,269.352 C188.502,268.008 188.022,267.144 187.254,266.664 C187.062,266.664 186.774,266.568 186.39,266.376 C186.198,266.28 185.814,266.184 185.238,265.992 C183.798,265.608 181.878,264.456 179.382,262.632 C178.806,262.152 178.23,261.672 177.654,261.192 C177.078,260.712 176.598,260.232 176.022,259.656 C175.35,259.176 174.678,258.6 174.102,258.024 C173.43,257.448 172.758,256.872 171.99,256.104 C171.126,255.432 170.358,254.76 169.782,254.184 C169.014,253.608 168.534,253.224 168.15,252.84 C166.614,251.688 165.27,250.536 163.926,249.288 C162.582,248.136 161.142,246.984 159.606,245.832 C162.774,245.064 165.846,244.008 168.918,242.76 C171.894,241.512 174.582,240.072 176.886,238.344 C179.19,236.712 181.11,234.792 182.55,232.584 C183.894,230.376 184.662,227.784 184.662,224.904 C184.662,221.832 183.798,219.24 182.166,217.128 C180.438,215.112 178.326,213.48 175.83,212.232 C173.238,211.08 170.454,210.216 167.478,209.64 C164.406,209.16 161.43,208.872 158.742,208.872 C157.782,208.872 156.246,208.968 154.134,209.16 C151.926,209.352 149.622,209.544 147.318,209.928 C147.03,208.968 146.358,208.2 145.398,207.624 C144.438,207.048 143.478,206.76 142.518,206.76 C141.366,206.76 140.502,207.144 139.83,207.72 C139.062,208.392 138.486,209.16 138.006,210.12 C135.606,210.312 133.974,210.696 133.11,211.464 C132.15,212.328 131.766,213.192 131.766,214.056 C131.766,215.208 132.15,216.264 132.918,217.032 C133.686,217.8 134.646,218.28 135.798,218.376 C135.606,220.008 135.414,221.448 135.414,222.792 L135.414,225.96 L135.414,233.928 C135.414,236.616 135.51,239.208 135.606,241.896 C135.318,241.896 135.126,241.992 135.03,241.992 C134.07,242.28 133.206,242.76 132.534,243.336 C131.862,244.104 131.574,244.968 131.574,245.928 C131.574,247.08 131.958,247.944 132.918,248.712 C133.686,249.48 134.646,249.96 135.798,250.056 C135.798,252.456 135.894,254.952 135.99,257.448 C135.99,260.04 136.086,262.44 136.086,264.744 C136.086,265.704 136.182,266.664 136.374,267.624 C136.566,268.584 136.95,269.448 137.526,270.216 C138.102,270.984 138.774,271.656 139.638,272.136 C140.502,272.616 141.654,272.808 142.998,272.808 C144.15,272.808 145.206,272.52 146.07,271.944 C146.838,271.368 147.318,270.408 147.318,269.16 C147.318,268.968 147.222,268.68 147.222,268.392 C147.126,268.2 147.03,267.912 146.934,267.528 C146.55,266.76 146.262,265.896 145.878,265.032 C145.494,264.264 145.302,263.4 145.302,262.44 C145.302,260.328 145.206,258.12 145.206,255.72 C145.11,253.416 145.014,251.112 145.014,248.904 C145.494,248.808 145.974,248.712 146.55,248.616 C147.126,248.616 147.702,248.52 148.278,248.328 C149.238,248.808 150.39,249.48 151.83,250.344 C153.174,251.304 154.71,252.36 156.342,253.512 C157.974,254.76 159.702,256.104 161.43,257.544 C163.158,258.984 164.79,260.424 166.422,261.768 C168.534,263.688 170.454,265.416 172.086,266.76 C173.622,268.296 175.062,269.544 176.502,270.696 C179.478,273.192 181.686,274.44 183.222,274.44 C184.278,274.44 185.238,274.056 186.198,273.288 C186.678,272.808 187.158,272.232 187.734,271.56 C188.214,270.984 188.502,270.216 188.502,269.352 L188.502,269.352 Z M174.486,224.136 C174.486,227.208 173.43,229.704 171.51,231.624 C169.398,233.544 166.806,235.176 163.734,236.328 C162.198,236.904 160.566,237.48 158.838,237.864 C157.11,238.344 155.478,238.728 153.846,239.016 C152.118,239.4 150.582,239.688 149.046,239.88 C147.51,240.072 146.07,240.36 144.726,240.552 C144.63,240.072 144.63,239.592 144.63,239.112 L144.63,237.864 L144.63,228.552 C144.63,225.48 144.822,222.408 145.11,219.24 C145.11,219.048 145.206,218.76 145.206,218.568 C145.206,218.376 145.206,218.088 145.302,217.8 C149.718,216.648 154.23,216.072 158.838,216.072 C160.374,216.072 162.006,216.168 163.83,216.36 C165.654,216.552 167.382,216.936 169.014,217.512 C170.55,218.088 171.798,218.952 172.854,219.912 C173.91,221.064 174.486,222.408 174.486,224.136 L174.486,224.136 Z M247.786,210.408 C247.786,209.256 247.306,208.296 246.442,207.432 C245.482,206.664 244.426,206.28 243.178,206.28 C242.602,206.28 241.834,206.376 240.874,206.376 C239.914,206.472 238.954,206.568 237.898,206.664 C236.746,206.76 235.69,206.856 234.538,206.856 C233.386,206.952 232.33,207.048 231.37,207.048 C228.49,207.24 225.61,207.336 222.826,207.432 L214.474,207.72 C211.978,207.912 209.674,208.008 207.466,208.2 C205.162,208.488 203.434,208.872 202.282,209.352 C201.514,209.736 200.938,210.12 200.746,210.696 C200.458,211.272 200.362,211.848 200.362,212.328 C200.362,213.384 200.746,214.248 201.514,214.92 C202.186,215.688 203.05,216.264 204.01,216.552 C204.01,218.376 203.914,220.008 203.914,221.544 C203.818,223.08 203.722,224.616 203.722,226.056 C203.626,227.592 203.53,229.128 203.434,230.664 C203.338,232.2 203.242,233.928 203.242,235.656 L202.762,235.656 C202.474,235.752 202.282,235.752 202.09,235.752 L201.61,235.752 C200.65,235.944 199.786,236.328 198.826,237 C197.866,237.672 197.482,238.536 197.482,239.592 C197.482,240.84 197.866,241.8 198.634,242.568 C199.402,243.336 200.362,243.72 201.514,243.72 L202.858,243.72 C202.762,244.296 202.666,245.16 202.474,246.216 C202.282,247.368 202.186,248.52 202.09,249.864 C201.898,251.208 201.802,252.456 201.706,253.704 C201.514,255.048 201.514,256.104 201.514,257.064 C201.514,258.216 201.514,259.272 201.706,260.328 C201.802,261.48 202.09,262.536 202.666,263.592 C203.434,265.32 204.586,266.76 206.314,267.72 C207.946,268.872 209.77,269.64 211.882,270.216 C213.898,270.888 216.01,271.368 218.122,271.56 C220.234,271.752 222.058,271.848 223.786,271.848 C226.762,271.848 229.642,271.752 232.522,271.56 C235.306,271.368 238.186,271.08 241.162,270.696 C241.738,270.696 242.314,270.504 243.082,270.312 C243.754,270.12 244.426,269.928 245.098,269.544 C245.674,269.256 246.25,268.872 246.73,268.296 C247.114,267.816 247.402,267.24 247.402,266.472 C247.402,265.896 247.114,265.224 246.634,264.552 C246.154,263.976 245.578,263.4 244.906,262.92 C244.138,262.44 243.37,262.056 242.602,261.768 C241.834,261.48 241.162,261.288 240.586,261.288 C239.722,261.288 238.954,261.384 238.378,261.384 C237.61,261.48 236.938,261.576 236.266,261.672 C235.498,261.864 234.826,261.96 234.154,262.152 C233.482,262.344 232.81,262.44 232.138,262.536 C230.506,262.92 228.874,263.112 227.338,263.304 C225.706,263.496 224.074,263.592 222.442,263.592 C221.098,263.592 219.85,263.592 218.506,263.4 C217.162,263.304 215.914,263.016 214.858,262.536 C213.706,262.152 212.842,261.576 212.17,260.808 C211.402,260.04 211.114,259.08 211.114,257.736 C211.114,255.528 211.21,253.032 211.498,250.344 C211.786,247.656 212.074,245.256 212.266,242.952 C213.802,242.856 215.626,242.76 217.642,242.568 C219.562,242.376 221.482,242.28 223.594,242.088 C225.514,241.992 227.53,241.8 229.546,241.608 C231.562,241.512 233.482,241.32 235.306,241.128 C236.554,241.032 237.706,240.648 238.666,239.88 C239.626,239.304 240.106,238.248 240.106,236.808 C240.106,235.56 239.626,234.504 238.762,233.736 C237.802,233.064 236.65,232.68 235.402,232.68 C234.442,232.68 233.386,232.776 232.33,232.776 C231.178,232.968 230.026,233.064 228.778,233.16 C227.818,233.352 226.666,233.448 225.322,233.544 C223.882,233.736 222.442,233.832 221.002,233.928 C219.466,234.024 218.026,234.12 216.682,234.12 C215.242,234.312 213.994,234.408 212.842,234.408 C213.226,228.648 213.418,222.696 213.418,216.648 C215.722,216.456 217.834,216.36 219.85,216.168 C221.77,216.072 223.978,215.976 226.378,215.784 C229.162,215.592 232.138,215.496 235.306,215.496 C238.378,215.496 241.258,215.304 244.042,214.92 C245.29,214.824 246.25,214.344 246.826,213.384 C247.402,212.52 247.786,211.56 247.786,210.408 L247.786,210.408 Z M309.95,265.896 C309.95,265.128 309.854,264.072 309.758,262.536 C309.662,261.096 309.566,259.368 309.374,257.352 C309.182,255.432 308.894,253.32 308.606,251.016 C308.318,248.808 308.03,246.504 307.646,244.008 C307.262,241.896 306.974,239.688 306.686,237.384 C306.302,235.08 306.014,232.776 305.63,230.472 C305.15,228.168 304.67,225.864 304.19,223.56 C303.614,221.352 302.942,219.144 302.27,217.032 C301.886,215.976 301.31,214.824 300.734,213.576 C300.158,212.424 299.39,211.272 298.526,210.12 C297.566,209.16 296.51,208.296 295.358,207.528 C294.11,206.856 292.766,206.472 291.23,206.472 C288.926,206.472 286.814,207.336 284.702,208.968 C282.59,210.696 280.574,212.808 278.654,215.304 C276.734,217.992 274.91,220.872 273.278,224.136 C271.55,227.4 270.11,230.568 268.766,233.64 C267.422,236.808 266.27,239.688 265.31,242.376 C264.35,245.16 263.582,247.368 263.198,248.904 C262.526,248.712 261.95,248.616 261.374,248.424 C260.702,248.328 260.03,248.232 259.358,248.232 C257.63,248.232 256.478,248.712 255.806,249.576 C255.614,249.864 255.518,250.056 255.422,250.248 C255.23,250.536 255.134,250.824 255.038,251.016 C254.846,251.304 254.75,251.592 254.654,251.784 C254.558,252.168 254.462,252.456 254.366,252.744 C254.654,253.704 254.942,254.472 255.326,255.048 C255.614,255.624 255.998,256.104 256.574,256.392 C256.958,256.776 257.534,256.968 258.302,257.064 C258.878,257.256 259.742,257.352 260.702,257.352 C260.414,258.408 260.126,259.464 259.934,260.616 C259.646,261.768 259.358,262.92 259.166,264.072 C258.782,265.416 258.59,266.664 258.494,267.816 C258.302,269.064 258.206,270.216 258.206,271.272 C258.206,271.848 258.494,272.424 259.07,272.808 C259.55,273.192 260.222,273.576 260.99,273.96 C261.662,274.248 262.43,274.44 263.198,274.632 C263.966,274.824 264.542,274.92 265.118,274.92 C266.27,274.92 267.326,274.44 268.286,273.48 C269.246,272.52 269.726,271.56 269.726,270.504 C269.726,268.392 269.822,266.184 270.014,263.88 C270.206,261.576 270.494,259.368 270.878,257.256 C273.374,257.16 275.87,256.968 278.27,256.776 C280.574,256.584 282.782,256.392 285.086,256.008 C287.294,255.816 289.598,255.432 291.902,255.048 C294.11,254.664 296.51,254.184 299.006,253.608 C299.006,253.992 299.006,254.568 299.102,255.24 C299.102,255.912 299.198,256.584 299.198,257.16 C299.198,257.928 299.294,258.6 299.39,259.176 L299.39,260.52 C299.39,261.096 299.294,261.672 299.198,262.152 C299.006,262.728 298.814,263.304 298.718,263.784 C298.526,264.36 298.334,264.936 298.238,265.416 C298.046,265.992 297.95,266.664 297.95,267.24 C297.95,268.008 298.142,268.584 298.622,269.16 C299.006,269.736 299.486,270.312 300.158,270.696 C300.734,271.176 301.502,271.56 302.27,271.752 C303.038,271.944 303.71,272.04 304.382,272.04 C306.302,272.04 307.742,271.368 308.606,270.024 C309.47,268.776 309.95,267.432 309.95,265.896 L309.95,265.896 Z M298.046,246.312 C293.822,247.272 289.694,247.944 285.566,248.52 C281.342,249.192 277.118,249.576 272.894,249.576 C273.566,247.08 274.43,244.392 275.39,241.704 C276.35,239.016 277.406,236.424 278.558,233.736 C279.71,231.144 280.958,228.552 282.398,226.056 C283.742,223.656 285.278,221.352 287.006,219.144 C287.87,218.088 288.734,217.224 289.598,216.456 C290.366,215.688 290.942,215.304 291.518,215.304 C291.614,215.304 291.71,215.496 291.902,215.784 C291.998,216.168 292.094,216.36 292.094,216.36 C292.574,217.704 292.958,218.952 293.342,220.104 C293.63,221.256 293.918,222.504 294.302,223.752 L295.166,227.784 C295.358,229.128 295.55,230.28 295.742,231.432 C296.222,233.736 296.702,236.232 297.086,238.824 C297.374,241.512 297.662,244.008 298.046,246.312 L298.046,246.312 Z M383.058,272.136 C383.058,271.656 382.866,271.176 382.578,270.6 C382.386,270.312 382.29,270.024 382.29,269.736 C382.098,269.544 382.002,269.256 382.002,269.064 C381.522,268.008 381.138,266.952 380.946,265.8 C380.658,264.744 380.466,263.592 380.37,262.344 C380.178,260.424 380.178,258.6 380.178,256.776 C380.082,254.952 379.986,253.032 379.986,251.016 L379.986,238.152 C379.986,234.888 380.082,231.624 380.37,228.36 C380.658,225.192 381.042,222.12 381.522,219.048 C381.522,218.664 381.618,218.184 381.714,217.608 C381.81,217.032 381.906,216.456 382.098,215.784 C382.194,215.208 382.29,214.728 382.482,214.152 C382.482,213.672 382.578,213.288 382.578,212.904 C382.578,212.424 382.386,212.04 382.098,211.656 C381.714,211.272 381.33,210.984 380.946,210.792 C380.466,210.6 379.986,210.504 379.602,210.312 C379.026,210.312 378.642,210.216 378.258,210.216 C377.394,210.216 376.434,210.312 375.282,210.504 C374.13,210.696 373.17,210.984 372.402,211.464 C371.058,212.424 369.618,214.152 368.274,216.456 C366.834,218.76 365.394,221.448 364.05,224.52 C362.61,227.592 361.266,230.856 359.922,234.312 C358.578,237.864 357.234,241.224 356.082,244.488 C354.834,247.752 353.778,250.44 352.914,252.744 C351.954,255.048 351.186,256.872 350.61,258.12 C348.114,254.28 346.002,250.248 344.274,246.024 C342.546,242.184 341.202,238.344 340.242,234.408 C339.186,230.568 338.322,226.536 337.65,222.312 C337.458,220.872 337.266,219.336 337.17,217.8 C337.074,216.36 336.882,214.92 336.498,213.384 C336.306,212.712 335.922,212.136 335.442,211.656 C334.866,211.176 334.194,210.792 333.522,210.408 C332.754,210.12 332.082,209.928 331.41,209.736 C330.642,209.64 329.874,209.544 329.298,209.544 C327.474,209.544 326.226,209.928 325.65,210.504 C325.074,211.176 324.786,212.04 324.786,213.096 L324.786,214.824 C324.786,215.016 324.69,215.112 324.69,215.112 L324.69,215.4 C323.634,219.912 322.866,225 322.482,230.664 C322.002,236.328 321.81,242.28 321.81,248.424 L321.81,251.208 L321.81,254.664 C321.81,256.008 321.906,257.256 322.002,258.504 C322.002,259.848 322.002,261.192 322.098,262.344 C322.194,264.648 322.386,266.376 322.578,267.72 C322.77,269.064 322.962,269.928 323.154,270.408 C323.73,272.136 324.978,273 326.898,273 C327.282,273 327.858,273 328.53,272.808 C329.106,272.712 329.778,272.52 330.45,272.232 C331.026,272.04 331.506,271.656 331.986,271.176 C332.37,270.792 332.658,270.408 332.658,269.832 C332.658,269.256 332.562,268.776 332.466,268.2 C332.274,267.72 332.178,267.24 332.082,266.664 C331.698,265.704 331.41,264.744 331.218,263.784 C330.834,261.864 330.642,258.888 330.45,255.048 C330.258,251.208 330.258,246.696 330.258,241.512 C330.258,239.688 330.258,237.768 330.354,235.848 C330.354,234.024 330.546,232.2 330.738,230.28 C331.218,232.392 331.794,234.696 332.466,237 C333.042,239.304 333.81,241.704 334.674,244.104 C336.306,248.616 338.226,252.936 340.53,257.16 C342.738,261.384 345.33,265.032 348.21,267.912 C349.074,268.968 350.226,269.448 351.666,269.448 C352.626,269.448 353.394,269.256 354.066,268.872 C354.738,268.488 355.314,267.912 355.89,267.24 C356.37,266.76 356.85,265.896 357.426,264.648 C357.906,263.496 358.386,262.344 358.962,261 C359.442,259.752 359.922,258.504 360.402,257.256 C360.786,256.104 361.074,255.144 361.362,254.472 C363.09,249.672 364.818,244.872 366.546,240.072 C368.274,235.272 370.386,230.472 372.69,225.864 C372.306,228.36 372.114,230.76 371.922,233.256 C371.73,235.752 371.634,238.248 371.634,240.648 L371.634,244.104 L371.634,248.424 C371.634,249.96 371.634,251.4 371.73,252.744 L371.73,256.104 C371.73,256.68 371.73,257.64 371.826,258.888 C371.826,260.232 371.922,261.672 372.114,263.112 C372.306,264.648 372.498,266.184 372.69,267.528 C372.882,269.064 373.074,270.12 373.458,270.888 C373.842,271.944 374.61,272.808 375.57,273.48 C376.434,274.248 377.49,274.632 378.834,274.632 C379.218,274.632 379.602,274.536 380.178,274.44 C380.562,274.344 381.042,274.248 381.522,274.056 C381.906,273.768 382.194,273.48 382.578,273.192 C382.866,272.904 383.058,272.52 383.058,272.136 L383.058,272.136 Z" id="DREAM" fill="#653D1A" sketch:type="MSShapeGroup"></path>
                <path d="M101.376,340.384 C101.376,338.656 100.992,337.024 100.32,335.392 C99.552,333.76 98.592,332.224 97.344,330.88 C96,329.536 94.464,328.384 92.736,327.424 C90.912,326.464 88.992,325.792 86.88,325.216 C88.992,324.352 90.72,323.296 92.16,321.952 C93.6,320.704 94.752,319.264 95.712,317.728 C96.576,316.288 97.248,314.752 97.632,313.12 C98.016,311.488 98.208,309.856 98.208,308.32 C98.208,306.016 97.824,303.904 97.056,301.888 C96.288,299.968 95.136,298.24 93.6,296.704 C92.064,295.264 90.144,294.112 87.936,293.248 C85.632,292.48 82.944,292 79.968,292 C77.088,292 74.112,292.576 71.232,293.632 C68.16,294.784 65.472,295.936 63.072,297.184 C63.072,296.8 62.976,296.224 62.88,295.648 C62.688,295.072 62.496,294.496 62.208,293.92 C61.92,293.536 61.536,293.152 61.056,292.768 C60.48,292.384 59.904,292.192 59.136,292.192 C57.984,292.192 56.928,292.48 55.872,293.056 C54.72,293.632 53.952,294.4 53.472,295.264 L53.952,299.104 L53.856,303.808 C53.472,304.096 53.184,304.384 52.992,304.768 C52.608,305.152 52.512,305.632 52.512,306.112 C52.512,306.592 52.608,306.976 52.992,307.36 C53.184,307.744 53.472,308.032 53.856,308.224 L53.856,315.424 C53.856,317.344 53.76,319.264 53.76,321.184 L53.76,326.464 C53.76,333.184 53.376,339.712 52.608,346.24 C51.264,346.336 50.112,346.72 49.344,347.488 C48.384,348.256 48,349.216 48,350.272 C48,351.424 48.384,352.192 49.152,352.672 C49.92,353.248 50.784,353.728 51.744,354.016 C51.744,354.4 51.744,354.88 51.84,355.264 C51.84,355.744 51.936,356.128 52.224,356.416 C52.512,356.992 52.992,357.472 53.76,357.664 C54.336,357.952 55.008,358.048 55.68,358.048 C56.16,358.048 56.832,357.952 57.792,357.568 C58.56,357.28 59.136,356.704 59.52,355.936 C60.192,356.128 61.152,356.32 62.4,356.512 C63.552,356.704 64.896,356.896 66.432,357.088 C67.776,357.28 69.216,357.376 70.656,357.472 C72.096,357.664 73.44,357.664 74.592,357.664 C76.608,357.664 78.528,357.664 80.256,357.472 C81.888,357.472 83.52,357.28 85.056,356.992 C86.592,356.8 88.032,356.416 89.472,355.84 C90.816,355.36 92.352,354.688 93.888,353.728 C96.096,352.48 97.92,350.752 99.264,348.64 C100.608,346.528 101.376,343.744 101.376,340.384 Z M89.4,308.544 C89.4,313.056 87.192,316.416 82.968,318.72 C78.648,321.024 72.024,322.464 63,323.136 C63,320.352 63.096,317.76 63.192,315.36 L63.192,307.488 C64.152,306.72 65.4,305.952 66.84,305.088 C68.184,304.224 69.72,303.36 71.256,302.592 C72.792,301.92 74.328,301.344 75.864,300.768 C77.4,300.288 78.936,300 80.28,300 C81.72,300 83.064,300.288 84.216,300.768 C85.368,301.344 86.328,302.016 87.096,302.784 C87.864,303.552 88.44,304.512 88.824,305.472 C89.208,306.528 89.4,307.584 89.4,308.544 Z M91.432,341.944 C91.432,343.096 91.144,344.248 90.568,345.208 C89.992,346.264 89.032,347.128 87.688,347.896 C86.248,348.664 84.424,349.336 82.312,349.72 C80.008,350.2 77.32,350.392 74.056,350.392 C72.52,350.392 71.176,350.392 69.832,350.2 C68.392,350.104 67.144,349.912 65.992,349.72 C64.84,349.528 63.88,349.336 63.112,349.144 C62.248,349.048 61.576,348.952 61,348.76 C61.288,345.688 61.48,342.808 61.576,339.928 C61.576,337.048 61.576,334.072 61.768,331 L71.464,331 C73.576,331 75.88,331.192 78.28,331.48 C80.584,331.864 82.696,332.44 84.616,333.208 C86.536,334.072 88.168,335.224 89.512,336.568 C90.76,338.008 91.432,339.832 91.432,341.944 Z" id="Path-Copy-9" fill="#FF9F00" sketch:type="MSShapeGroup"></path>
                <path d="M160.576,319.208 C160.576,315.752 160.48,312.392 160.384,308.936 C160.288,305.576 160.288,302.12 160.288,298.664 C160.288,298.088 160.192,297.416 160,296.648 C159.808,296.072 159.424,295.496 159.04,294.92 C158.656,294.344 158.08,293.96 157.408,293.576 C156.64,293.192 155.872,293 154.912,293 C152.8,293 151.36,293.576 150.4,294.728 C149.44,295.88 148.96,297.224 148.96,298.856 C148.96,300.392 149.056,301.832 149.44,303.272 C149.632,304.808 149.824,306.248 150.016,307.688 C150.112,309.896 150.208,312.104 150.304,314.216 C150.304,316.424 150.4,318.632 150.4,320.744 C150.4,322.856 150.304,324.872 150.208,326.888 C150.016,329 149.824,331.016 149.632,333.032 C149.248,335.72 148.864,338.216 148.384,340.424 C147.808,342.728 147.04,344.648 146.08,346.28 C145.024,348.008 143.68,349.256 142.048,350.216 C140.32,351.176 138.208,351.56 135.712,351.56 C133.696,351.56 131.968,351.176 130.432,350.312 C128.8,349.544 127.456,348.104 126.4,346.184 C125.344,344.264 124.576,341.672 124.096,338.504 C123.52,335.336 123.232,331.4 123.232,326.6 C123.232,321.992 123.328,317.48 123.52,312.968 C123.712,308.552 123.808,303.944 123.808,299.336 C123.808,298.088 123.136,297.032 121.984,296.072 C120.64,295.208 119.296,294.728 117.952,294.728 C117.376,294.728 116.704,294.92 116.032,295.112 C115.264,295.304 114.688,295.592 114.112,295.976 C113.536,296.36 112.96,296.84 112.576,297.416 C112.192,297.992 112,298.664 112,299.336 C112,299.816 112,300.2 112.192,300.488 L112.768,301.64 C112.864,301.928 112.96,302.216 113.152,302.408 C113.152,302.696 113.248,302.984 113.248,303.272 L113.248,307.976 L113.248,312.968 L113.248,317.672 L113.248,321.8 C113.248,323.912 113.248,326.12 113.344,328.232 C113.344,330.44 113.44,332.648 113.728,334.856 C113.92,337.064 114.304,339.272 114.88,341.384 C115.264,343.496 115.936,345.512 116.896,347.432 C118.048,350.12 119.488,352.328 121.408,353.864 C123.136,355.496 125.248,356.744 127.744,357.704 C128.8,358.28 129.952,358.664 131.2,358.856 C132.448,359.048 133.696,359.144 135.04,359.144 C139.84,359.144 144.064,358.184 147.712,356.072 C151.36,354.056 154.24,351.08 156.352,347.144 C157.504,344.84 158.56,341.192 159.424,336.296 C160.192,331.496 160.576,325.736 160.576,319.208 L160.576,319.208 Z" id="Path-Copy-3" fill="#FF9F00" sketch:type="MSShapeGroup"></path>
                <path d="M225.008,297.992 C225.008,297.416 224.72,296.744 224.336,296.168 C223.856,295.592 223.28,295.112 222.704,294.536 L220.688,293.384 C219.92,293.192 219.248,293 218.672,293 C218.096,293 217.424,293.096 216.848,293.192 C216.272,293.384 215.696,293.48 215.12,293.672 C214.544,293.864 214.064,294.056 213.488,294.152 C212.912,294.344 212.336,294.536 211.76,294.632 C207.536,295.304 203.216,295.784 198.8,296.072 C194.384,296.456 190.064,296.84 185.84,297.032 C184.016,297.224 182.288,297.224 180.56,297.224 C178.736,297.32 177.008,297.416 175.28,297.512 C174.704,297.608 174.224,297.704 173.648,297.8 C172.976,297.896 172.4,297.992 171.92,298.184 C171.344,298.472 170.864,298.76 170.576,299.144 C170.192,299.528 170,300.008 170,300.584 C170,301.16 170.192,301.832 170.576,302.408 C170.96,303.08 171.536,303.656 172.112,304.136 C172.688,304.712 173.456,305.192 174.224,305.48 C174.896,305.864 175.568,305.96 176.144,305.96 C177.296,305.96 178.544,305.864 179.792,305.672 C180.944,305.48 182.096,305.288 183.248,305.096 C184.976,305 186.704,304.904 188.432,304.712 C190.16,304.712 191.792,304.616 193.52,304.424 C192.752,310.568 192.176,316.616 191.792,322.664 C191.312,328.808 191.12,334.856 191.12,341 C191.12,344.84 191.216,348.2 191.408,351.08 C191.6,353.96 191.792,356.072 192.176,357.32 C192.272,357.992 192.56,358.568 193.04,358.952 C193.52,359.432 194.096,359.816 194.768,360.008 C195.344,360.296 195.92,360.584 196.688,360.776 C197.36,360.872 198.032,360.968 198.608,360.968 C199.76,360.968 200.912,360.584 202.064,360.008 C203.12,359.432 203.696,358.472 203.696,357.128 C203.696,356.648 203.6,356.168 203.504,355.592 C203.312,355.016 203.216,354.536 203.12,353.96 C202.928,353.48 202.832,353 202.736,352.52 C202.544,352.136 202.448,351.656 202.352,351.08 C201.968,347.72 201.68,344.36 201.68,341 L201.68,330.92 C201.68,326.312 201.872,321.8 202.352,317.192 C202.736,312.68 203.12,308.072 203.504,303.464 C206.384,303.176 209.36,302.888 212.432,302.6 C215.312,302.408 218.288,302.12 221.168,301.544 C222.128,301.352 222.992,301.064 223.76,300.488 C224.528,299.912 225.008,299.144 225.008,297.992 L225.008,297.992 Z" id="Path-Copy-4" fill="#FF9F00" sketch:type="MSShapeGroup"></path>
                <path d="M285.008,297.992 C285.008,297.416 284.72,296.744 284.336,296.168 C283.856,295.592 283.28,295.112 282.704,294.536 L280.688,293.384 C279.92,293.192 279.248,293 278.672,293 C278.096,293 277.424,293.096 276.848,293.192 C276.272,293.384 275.696,293.48 275.12,293.672 C274.544,293.864 274.064,294.056 273.488,294.152 C272.912,294.344 272.336,294.536 271.76,294.632 C267.536,295.304 263.216,295.784 258.8,296.072 C254.384,296.456 250.064,296.84 245.84,297.032 C244.016,297.224 242.288,297.224 240.56,297.224 C238.736,297.32 237.008,297.416 235.28,297.512 C234.704,297.608 234.224,297.704 233.648,297.8 C232.976,297.896 232.4,297.992 231.92,298.184 C231.344,298.472 230.864,298.76 230.576,299.144 C230.192,299.528 230,300.008 230,300.584 C230,301.16 230.192,301.832 230.576,302.408 C230.96,303.08 231.536,303.656 232.112,304.136 C232.688,304.712 233.456,305.192 234.224,305.48 C234.896,305.864 235.568,305.96 236.144,305.96 C237.296,305.96 238.544,305.864 239.792,305.672 C240.944,305.48 242.096,305.288 243.248,305.096 C244.976,305 246.704,304.904 248.432,304.712 C250.16,304.712 251.792,304.616 253.52,304.424 C252.752,310.568 252.176,316.616 251.792,322.664 C251.312,328.808 251.12,334.856 251.12,341 C251.12,344.84 251.216,348.2 251.408,351.08 C251.6,353.96 251.792,356.072 252.176,357.32 C252.272,357.992 252.56,358.568 253.04,358.952 C253.52,359.432 254.096,359.816 254.768,360.008 C255.344,360.296 255.92,360.584 256.688,360.776 C257.36,360.872 258.032,360.968 258.608,360.968 C259.76,360.968 260.912,360.584 262.064,360.008 C263.12,359.432 263.696,358.472 263.696,357.128 C263.696,356.648 263.6,356.168 263.504,355.592 C263.312,355.016 263.216,354.536 263.12,353.96 C262.928,353.48 262.832,353 262.736,352.52 C262.544,352.136 262.448,351.656 262.352,351.08 C261.968,347.72 261.68,344.36 261.68,341 L261.68,330.92 C261.68,326.312 261.872,321.8 262.352,317.192 C262.736,312.68 263.12,308.072 263.504,303.464 C266.384,303.176 269.36,302.888 272.432,302.6 C275.312,302.408 278.288,302.12 281.168,301.544 C282.128,301.352 282.992,301.064 283.76,300.488 C284.528,299.912 285.008,299.144 285.008,297.992 L285.008,297.992 Z" id="Path-Copy-5" fill="#FF9F00" sketch:type="MSShapeGroup"></path>
                <path d="M343.304,297.128 C343.304,295.976 342.824,295.016 341.96,294.152 C341,293.384 339.944,293 338.696,293 C338.12,293 337.352,293.096 336.392,293.096 C335.432,293.192 334.472,293.288 333.416,293.384 C332.264,293.48 331.208,293.576 330.056,293.576 C328.904,293.672 327.848,293.768 326.888,293.768 C324.008,293.96 321.128,294.056 318.344,294.152 C315.56,294.248 312.776,294.344 309.992,294.44 C307.496,294.632 305.192,294.728 302.984,294.92 C300.68,295.208 298.952,295.592 297.8,296.072 C297.032,296.456 296.456,296.84 296.264,297.416 C295.976,297.992 295.88,298.568 295.88,299.048 C295.88,300.104 296.264,300.968 297.032,301.64 C297.704,302.408 298.568,302.984 299.528,303.272 C299.528,305.096 299.432,306.728 299.432,308.264 C299.336,309.8 299.24,311.336 299.24,312.776 C299.144,314.312 299.048,315.848 298.952,317.384 C298.856,318.92 298.76,320.648 298.76,322.376 L298.28,322.376 C297.992,322.472 297.8,322.472 297.608,322.472 L297.128,322.472 C296.168,322.664 295.304,323.048 294.344,323.72 C293.384,324.392 293,325.256 293,326.312 C293,327.56 293.384,328.52 294.152,329.288 C294.92,330.056 295.88,330.44 297.032,330.44 L298.376,330.44 C298.28,331.016 298.184,331.88 297.992,332.936 C297.8,334.088 297.704,335.24 297.608,336.584 C297.416,337.928 297.32,339.176 297.224,340.424 C297.032,341.768 297.032,342.824 297.032,343.784 C297.032,344.936 297.032,345.992 297.224,347.048 C297.32,348.2 297.608,349.256 298.184,350.312 C298.952,352.04 300.104,353.48 301.832,354.44 C303.464,355.592 305.288,356.36 307.4,356.936 C309.416,357.608 311.528,358.088 313.64,358.28 C315.752,358.472 317.576,358.568 319.304,358.568 C322.28,358.568 325.16,358.472 328.04,358.28 C330.824,358.088 333.704,357.8 336.68,357.416 C337.256,357.416 337.832,357.224 338.6,357.032 C339.272,356.84 339.944,356.648 340.616,356.264 C341.192,355.976 341.768,355.592 342.248,355.016 C342.632,354.536 342.92,353.96 342.92,353.192 C342.92,352.616 342.632,351.944 342.152,351.272 C341.672,350.696 341.096,350.12 340.424,349.64 C339.656,349.16 338.888,348.776 338.12,348.488 C337.352,348.2 336.68,348.008 336.104,348.008 C335.24,348.008 334.472,348.104 333.896,348.104 C333.128,348.2 332.456,348.296 331.784,348.392 C331.016,348.584 330.344,348.68 329.672,348.872 C329,349.064 328.328,349.16 327.656,349.256 C326.024,349.64 324.392,349.832 322.856,350.024 C321.224,350.216 319.592,350.312 317.96,350.312 C316.616,350.312 315.368,350.312 314.024,350.12 C312.68,350.024 311.432,349.736 310.376,349.256 C309.224,348.872 308.36,348.296 307.688,347.528 C306.92,346.76 306.632,345.8 306.632,344.456 C306.632,342.248 306.728,339.752 307.016,337.064 C307.304,334.376 307.592,331.976 307.784,329.672 C309.32,329.576 311.144,329.48 313.16,329.288 C315.08,329.096 317,329 319.112,328.808 C321.032,328.712 323.048,328.52 325.064,328.328 C327.08,328.232 329,328.04 330.824,327.848 C332.072,327.752 333.224,327.368 334.184,326.6 C335.144,326.024 335.624,324.968 335.624,323.528 C335.624,322.28 335.144,321.224 334.28,320.456 C333.32,319.784 332.168,319.4 330.92,319.4 C329.96,319.4 328.904,319.496 327.848,319.496 C326.696,319.688 325.544,319.784 324.296,319.88 C323.336,320.072 322.184,320.168 320.84,320.264 C319.4,320.456 317.96,320.552 316.52,320.648 C314.984,320.744 313.544,320.84 312.2,320.84 C310.76,321.032 309.512,321.128 308.36,321.128 C308.744,315.368 308.936,309.416 308.936,303.368 C311.24,303.176 313.352,303.08 315.368,302.888 C317.288,302.792 319.496,302.696 321.896,302.504 C324.68,302.312 327.656,302.216 330.824,302.216 C333.896,302.216 336.776,302.024 339.56,301.64 C340.808,301.544 341.768,301.064 342.344,300.104 C342.92,299.24 343.304,298.28 343.304,297.128 L343.304,297.128 Z" id="Path-Copy-6" fill="#FF9F00" sketch:type="MSShapeGroup"></path>
                <path d="M408.928,356.592 C408.928,355.248 408.448,354.384 407.68,353.904 C407.488,353.904 407.2,353.808 406.816,353.616 C406.624,353.52 406.24,353.424 405.664,353.232 C404.224,352.848 402.304,351.696 399.808,349.872 L398.08,348.432 C397.504,347.952 397.024,347.472 396.448,346.896 C395.776,346.416 395.104,345.84 394.528,345.264 C393.856,344.688 393.184,344.112 392.416,343.344 C391.552,342.672 390.784,342 390.208,341.424 C389.44,340.848 388.96,340.464 388.576,340.08 C387.04,338.928 385.696,337.776 384.352,336.528 C383.008,335.376 381.568,334.224 380.032,333.072 C383.2,332.304 386.272,331.248 389.344,330 C392.32,328.752 395.008,327.312 397.312,325.584 C399.616,323.952 401.536,322.032 402.976,319.824 C404.32,317.616 405.088,315.024 405.088,312.144 C405.088,309.072 404.224,306.48 402.592,304.368 C400.864,302.352 398.752,300.72 396.256,299.472 C393.664,298.32 390.88,297.456 387.904,296.88 C384.832,296.4 381.856,296.112 379.168,296.112 C378.208,296.112 376.672,296.208 374.56,296.4 C372.352,296.592 370.048,296.784 367.744,297.168 C367.456,296.208 366.784,295.44 365.824,294.864 C364.864,294.288 363.904,294 362.944,294 C361.792,294 360.928,294.384 360.256,294.96 C359.488,295.632 358.912,296.4 358.432,297.36 C356.032,297.552 354.4,297.936 353.536,298.704 C352.576,299.568 352.192,300.432 352.192,301.296 C352.192,302.448 352.576,303.504 353.344,304.272 C354.112,305.04 355.072,305.52 356.224,305.616 C356.032,307.248 355.84,308.688 355.84,310.032 L355.84,313.2 L355.84,321.168 C355.84,323.856 355.936,326.448 356.032,329.136 C355.744,329.136 355.552,329.232 355.456,329.232 C354.496,329.52 353.632,330 352.96,330.576 C352.288,331.344 352,332.208 352,333.168 C352,334.32 352.384,335.184 353.344,335.952 C354.112,336.72 355.072,337.2 356.224,337.296 C356.224,339.696 356.32,342.192 356.416,344.688 C356.416,347.28 356.512,349.68 356.512,351.984 C356.512,352.944 356.608,353.904 356.8,354.864 C356.992,355.824 357.376,356.688 357.952,357.456 C358.528,358.224 359.2,358.896 360.064,359.376 C360.928,359.856 362.08,360.048 363.424,360.048 C364.576,360.048 365.632,359.76 366.496,359.184 C367.264,358.608 367.744,357.648 367.744,356.4 C367.744,356.208 367.648,355.92 367.648,355.632 C367.552,355.44 367.456,355.152 367.36,354.768 C366.976,354 366.688,353.136 366.304,352.272 C365.92,351.504 365.728,350.64 365.728,349.68 C365.728,347.568 365.632,345.36 365.632,342.96 C365.536,340.656 365.44,338.352 365.44,336.144 C365.92,336.048 366.4,335.952 366.976,335.856 C367.552,335.856 368.128,335.76 368.704,335.568 C369.664,336.048 370.816,336.72 372.256,337.584 C373.6,338.544 375.136,339.6 376.768,340.752 C378.4,342 380.128,343.344 381.856,344.784 C383.584,346.224 385.216,347.664 386.848,349.008 C388.96,350.928 390.88,352.656 392.512,354 C394.048,355.536 395.488,356.784 396.928,357.936 C399.904,360.432 402.112,361.68 403.648,361.68 C404.704,361.68 405.664,361.296 406.624,360.528 C407.104,360.048 407.584,359.472 408.16,358.8 C408.64,358.224 408.928,357.456 408.928,356.592 Z M394.856,311.064 C394.856,314.136 393.8,316.632 391.88,318.552 C389.768,320.472 387.176,322.104 384.104,323.256 C382.568,323.832 380.936,324.408 379.208,324.792 C377.48,325.272 375.848,325.656 374.216,325.944 C372.488,326.328 370.952,326.616 369.416,326.808 C367.88,327 366.44,327.288 365.096,327.48 C365,327 365,326.52 365,326.04 L365,324.792 L365,315.48 C365,312.408 365.192,309.336 365.48,306.168 C365.48,305.976 365.576,305.688 365.576,305.496 C365.576,305.304 365.576,305.016 365.672,304.728 C370.088,303.576 374.6,303 379.208,303 C380.744,303 382.376,303.096 384.2,303.288 C386.024,303.48 387.752,303.864 389.384,304.44 C390.92,305.016 392.168,305.88 393.224,306.84 C394.28,307.992 394.856,309.336 394.856,311.064 Z" id="Path-Copy-7" fill="#FF9F00" sketch:type="MSShapeGroup"></path>
            </g>
        </g>
    </g>
</svg>